<?xml version="1.0" encoding="UTF-8"?>
<svg id="Capa_1" data-name="Capa 1" xmlns="http://www.w3.org/2000/svg" viewBox="0 0 295.3 360.24">
  <defs>
    <style>
      .cls-1 {
        font-family: NewOrder-Bold, 'New Order';
        font-size: 48.04px;
        font-weight: 700;
      }

      .cls-1, .cls-2 {
        fill: #1d1d1b;
      }

      .cls-2 {
        font-family: BrushScriptMT, 'Brush Script MT';
        font-size: 53.32px;
      }

      .cls-3 {
        fill: #1d602d;
      }

      .cls-4 {
        fill: #daae89;
      }
    </style>
  </defs>
  <g>
    <g>
      <circle class="cls-4" cx="177.03" cy="80.42" r="18.83"/>
      <path class="cls-3" d="M112.83,53.46v83.27c0,1.93,2.25,2.99,3.73,1.75,10.31-8.62,20.83-18.01,34.2-21.2,13.58-3.25,31.18-1.3,40.59,10.03,16.33,19.65,8.12,69.78,10.14,95.22,1.05,13.17,7.96,15.5,19.34,15.86,1.23.04,2.21,1.04,2.21,2.27v.06c0,1.26-1.02,2.27-2.27,2.27h-67.95c-1.07,0-2-.75-2.22-1.8h0c-.3-1.41.77-2.74,2.21-2.75,8.75-.05,17.76-1.08,21.04-10.48.09-.26.13-.54.12-.82-.66-22.48,1.43-46.05.19-68.38-.38-6.88-1.34-15.23-6.3-20.38-13.91-14.43-43.85-1.83-54.53,11.98-.32.42-.47.93-.45,1.46.86,21.98-1.33,44.99-.07,66.82.16,2.79.61,7.17,1.24,9.82,2.06,8.67,12.86,9.49,20.76,9.88,1.21.06,2.16,1.06,2.16,2.27v.11c0,1.26-1.02,2.27-2.27,2.27h-69.14c-1.26,0-2.27-1.02-2.27-2.27v-.16c0-1.19.93-2.19,2.12-2.27,11.68-.82,19.3-1.91,20.61-15.7,0-.1.01-.21,0-.32-1.63-44.23,2.48-90.37.12-134.37-.18-3.36-.63-8.92-1.65-12.01-3.1-9.42-11.48-7.45-19.07-5.66-1,.24-2.04-.24-2.53-1.15l-.29-.55c-.66-1.24-.04-2.79,1.3-3.23l42.42-14c.23-.08.47-.11.71-.11h3.55c1.26,0,2.28,1.01,2.28,2.27Z"/>
      <path class="cls-3" d="M179.99,61.67c-.07,1.2-2.16.47-3.29.93-1.44.59-5.27,2.5-4.53,4.26h-1.29s-.37-1.33-.37-1.33c-1.83.67-4.48.58-4.86,2.95-.43,2.65,2.6-.93,3.27-.31l-.66,1.94,1.9.06.37,1.71c1.8.37,2.96-.97,4.56-1.14,2.48-.28,6.67,1.07,8.81,2.34.99.59.98,1.76,1.82,2.24,1.28.72,4.44,1.08,5.99,1.99.36.53-2.94,6.58-3.42,6.93-1.97,1.44-4.84,3.35-7.01,5.16-3.06,2.54-3.6,1.21-3.56,6.08-4.93-2.13-1.13-8.91-2.39-12.57-.37-1.07-4.87-3.18-5.13-6l1.97-4.17-9.16-2.24c-2.82-3.77,3.96-6.56,6.86-7.54,3.38-1.14,6.55-1.55,10.13-1.27Z"/>
    </g>
    <text class="cls-1" transform="translate(84.17 288.87)"><tspan x="0" y="0">2025</tspan></text>
  </g>
  <text class="cls-2" transform="translate(233.6 61.59)"><tspan x="0" y="0">®</tspan></text>
</svg>